Coordinates
version=1
nRows=17
nColumns=24
inDegrees=yes

Units are S.I. units (second, meters, Newtons, ...)
Angles are in degrees.

endheader
time	pelvis_tilt	pelvis_list	pelvis_rotation	pelvis_tx	pelvis_ty	pelvis_tz	hip_flexion_r	hip_adduction_r	hip_rotation_r	knee_angle_r	ankle_angle_r	subtalar_angle_r	mtp_angle_r	hip_flexion_l	hip_adduction_l	hip_rotation_l	knee_angle_l	ankle_angle_l	subtalar_angle_l	mtp_angle_l	lumbar_extension	lumbar_bending	lumbar_rotation
      1.32950000	     -3.29942562	      6.69065012	     -1.09121524	      0.20211047	      0.99259197	      0.30983365	     20.78605273	     -7.01605017	      0.43154597	    -69.37348672	     -5.91215360	    -11.47259820	      5.09203736	     11.55037618	     11.52792731	     -0.07565611	     -9.44707364	      0.32664354	    -12.45447585	      0.26569667	      1.47201580	     -4.43718634	      2.79190774
      1.33366667	     -3.22244779	      6.61954870	     -1.10304866	      0.20722732	      0.99325586	      0.30975198	     21.29017775	     -6.87984223	      0.57796760	    -69.21021004	     -5.05696581	    -11.59881064	      5.02564560	     10.99409173	     11.47828810	      0.04063610	     -9.19396891	      0.48290866	    -12.44272181	      0.22797986	      1.37797845	     -4.35494900	      2.74990408
      1.33783333	     -3.12069370	      6.54677601	     -1.11204220	      0.21234676	      0.99394584	      0.30966969	     21.74806650	     -6.74607996	      0.71224620	    -68.98369117	     -4.22218386	    -11.70495599	      4.94175494	     10.40348533	     11.42845307	      0.17586140	     -8.92520023	      0.62447851	    -12.44947214	      0.17904655	      1.24947024	     -4.27214965	      2.70010802
      1.34200000	     -2.99131687	      6.47460850	     -1.12387024	      0.21749552	      0.99466112	      0.30957018	     22.15034084	     -6.61922419	      0.84103086	    -68.68020759	     -3.43040656	    -11.70676430	      4.46965324	      9.74717701	     11.38846302	      0.39975858	     -8.58549228	      0.67706520	    -12.64163205	     -0.09093534	      1.09604444	     -4.18621151	      2.60587551
      1.34616667	     -2.94457216	      6.39463493	     -1.11698265	      0.22255622	      0.99519230	      0.30949295	     22.64482296	     -6.47626328	      0.96193693	    -68.35605149	     -2.61134911	    -11.83746661	      4.40336494	      9.24631009	     11.32529875	      0.50930488	     -8.37570339	      0.87709383	    -12.57916572	     -0.13147395	      1.03158530	     -4.09074550	      2.58871065
      1.35033333	     -2.87546260	      6.29329102	     -1.11209336	      0.22764713	      0.99575507	      0.30942058	     23.08381477	     -6.31177373	      1.07105126	    -67.94869994	     -1.83388981	    -11.92202847	      4.34669245	      8.70969713	     11.23996842	      0.62600584	     -8.14527690	      1.05075466	    -12.55919595	     -0.16913377	      0.95188218	     -3.96975742	      2.55520730
      1.35450000	     -2.73109759	      6.21378909	     -1.11780148	      0.23274739	      0.99638098	      0.30932800	     23.42710961	     -6.18566099	      1.17395968	    -67.48825078	     -1.09539682	    -11.89985935	      4.00272275	      8.05272253	     11.18666236	      0.82458635	     -7.83070466	      1.13945420	    -12.67486587	     -0.38820646	      0.76387004	     -3.87546753	      2.46278492
      1.35866667	     -2.63718253	      6.12874199	     -1.10690288	      0.23784306	      0.99690762	      0.30924973	     23.80664962	     -6.05239012	      1.26079931	    -66.97794113	     -0.34054984	    -11.96081124	      3.69620852	      7.48158427	     11.11948478	      0.95642583	     -7.58215660	      1.30372613	    -12.67968819	     -0.58598821	      0.66494939	     -3.78625336	      2.41714041
      1.36283333	     -2.61206136	      6.03601199	     -1.08188789	      0.24283341	      0.99727628	      0.30917876	     24.25995121	     -5.89967873	      1.35599606	    -66.43487026	      0.38460586	    -12.02814583	      3.63688255	      7.01933589	     11.04100602	      1.10498954	     -7.39492916	      1.49456553	    -12.67013599	     -0.62746710	      0.59981297	     -3.68263994	      2.39412348
      1.36700000	     -2.49289274	      5.94540301	     -1.07199678	      0.24789952	      0.99776974	      0.30908824	     24.58019636	     -5.76919440	      1.42907966	    -65.81713171	      1.06109461	    -11.99638515	      3.37124096	      6.40582576	     10.97090327	      1.29568364	     -7.10748382	      1.59976097	    -12.76676605	     -0.80810523	      0.43696277	     -3.56807640	      2.30682711
      1.37116667	     -2.43178515	      5.86431272	     -1.04244433	      0.25291957	      0.99812641	      0.30900472	     24.95570234	     -5.64572854	      1.49600720	    -65.16881529	      1.75520688	    -12.07084510	      3.25860244	      5.89429179	     10.90445462	      1.43719145	     -6.89755545	      1.79891578	    -12.75773789	     -0.88515840	      0.35528299	     -3.48538230	      2.26906788
      1.37533333	     -2.38746027	      5.75671278	     -1.00553627	      0.25792561	      0.99844119	      0.30892935	     25.32260497	     -5.49230314	      1.55129829	    -64.45151387	      2.38383577	    -12.10409908	      3.20677859	      5.41414386	     10.80714489	      1.57908307	     -6.71310368	      1.97535303	    -12.76817929	     -0.92261045	      0.28648562	     -3.36046921	      2.23658257
      1.37950000	     -2.26188248	      5.68525242	     -0.98292693	      0.26296068	      0.99882587	      0.30884584	     25.59016657	     -5.39100894	      1.60451148	    -63.69644365	      2.98744920	    -12.10854679	      3.07132363	      4.80860657	     10.75226895	      1.76061829	     -6.44838990	      2.11516746	    -12.82523456	     -1.01673386	      0.10989169	     -3.28262807	      2.14746998
      1.38366667	     -2.22046661	      5.57409442	     -0.93138616	      0.26795292	      0.99908116	      0.30876732	     25.92051432	     -5.24272840	      1.63356456	    -62.87453990	      3.55427154	    -12.14270389	      3.01114449	      4.33876688	     10.64863945	      1.91144449	     -6.27502085	      2.29532299	    -12.84757662	     -1.05830372	      0.04552252	     -3.15574460	      2.11249163
      1.38783333	     -2.16554250	      5.48610621	     -0.88663579	      0.27294850	      0.99929001	      0.30868688	     26.22855054	     -5.12380154	      1.66502766	    -62.02348572	      4.08391809	    -12.17111464	      2.95295823	      3.84581311	     10.56933362	      2.06972980	     -6.08092736	      2.47427457	    -12.86778811	     -1.09698965	     -0.04460679	     -3.05417366	      2.06083420
      1.39200000	     -2.06683037	      5.42968530	     -0.84931887	      0.27795725	      0.99950828	      0.30860181	     26.47921964	     -5.04947213	      1.69108938	    -61.13907451	      4.56605707	    -12.18533461	      2.81301649	      3.28243603	     10.52581271	      2.25782412	     -5.83620113	      2.61819599	    -12.94665255	     -1.18671851	     -0.19315875	     -2.99741159	      1.95065486
      1.39616667	     -2.05145758	      5.34201078	     -0.78595950	      0.28291856	      0.99960268	      0.30851829	     26.79438064	     -4.93695225	      1.70168700	    -60.19515507	      5.01286825	    -12.20962781	      2.75483962	      2.85454414	     10.44269882	      2.41679354	     -5.68329635	      2.80048320	    -12.97129535	     -1.22234102	     -0.24153300	     -2.89655618	      1.91811833
